#!OML:ASF F:\VICON\USERDATA\INSTALL\rory3\rory3.ASF
:FULLY-SPECIFIED
:DEGREES
439
root 0.379781 16.319 -26.9851 -148.853 -24.4616 -187.509
lowerback -7.64473 0.555229 6.25841
upperback -9.50231 -0.41556 -0.101477
thorax -5.70619 -1.01731 -3.57736
lowerneck -20.9419 -4.64975 -7.91774
upperneck 32.2002 -5.69784 0.498437
head 14.9769 -3.85715 0.34284
rclavicle 5.86415e-015 -4.13472e-014
rhumerus -4.01171 -60.6791 -37.9713
rradius 15.5786
rwrist 15.5648
rhand -5.87641 14.4828
rfingers 7.12502
rthumb 19.9512 -14.513
lclavicle 5.86415e-015 -4.13472e-014
lhumerus -25.1128 -16.0836 83.8446
lradius 13.9368
lwrist -48.0097
lhand -3.36018 21.4576
lfingers 7.12502
lthumb 22.3683 50.1827
rfemur -214.488 -189.272 -153.511
rtibia 36.4264
rfoot -45.7292 -35.9198
rtoes 30.2075
lfemur -63.6898 -0.790286 -32.2646
ltibia 41.0992
lfoot -3.73684 -5.96297
ltoes -12.6184
440
root 0.355525 16.3058 -27.0212 -149.919 -24.9278 -185.586
lowerback -6.69947 0.917182 8.30272
upperback -10.025 0.0472189 0.109548
thorax -6.80026 -0.999869 -4.47156
lowerneck -19.8773 -4.42157 -7.53514
upperneck 32.8512 -5.92521 0.758453
head 15.0382 -3.95433 0.346331
rclavicle -3.80673e-014 4.77083e-014
rhumerus -6.76902 -59.9339 -36.2178
rradius 15.65
rwrist 15.3386
rhand -5.54637 14.3315
rfingers 7.12502
rthumb 20.2684 -14.6309
lclavicle -3.80673e-014 4.77083e-014
lhumerus -25.4965 -14.4468 84.3819
lradius 14.0257
lwrist -49.3525
lhand -2.52913 20.2785
lfingers 7.12502
lthumb 23.1658 48.9055
rfemur -213.701 -188.567 -151.263
rtibia 35.9124
rfoot -44.6898 -35.5692
rtoes 28.7161
lfemur -64.4842 -0.44422 -31.9353
ltibia 40.9458
lfoot -2.79539 -5.85362
ltoes -14.1378
441
root 0.349829 16.2995 -27.1095 -150.72 -24.4183 -184.227
lowerback -7.67258 1.1521 8.63158
upperback -9.2184 0.304117 0.638241
thorax -5.33471 -0.755703 -4.10799
lowerneck -20.3486 -4.38927 -7.45683
upperneck 33.0945 -5.99915 1.10173
head 15.2711 -3.92051 0.444911
rclavicle 8.34896e-015 -1.90833e-014
rhumerus -5.22523 -62.0194 -37.8225
rradius 15.2941
rwrist 16.7299
rhand -5.26831 14.3354
rfingers 7.12502
rthumb 20.5356 -14.5985
lclavicle 8.34896e-015 -1.90833e-014
lhumerus -23.9307 -13.6044 85.2009
lradius 14.124
lwrist -48.2664
lhand -1.71054 19.4895
lfingers 7.12502
lthumb 23.951 48.0156
rfemur -212.758 -189.207 -150.053
rtibia 35.2557
rfoot -43.9388 -35.5611
rtoes 27.4478
lfemur -65.3289 0.172132 -31.8905
ltibia 40.8152
lfoot -1.91934 -5.00628
ltoes -10.5591
442
root 0.29784 16.2853 -27.1366 -151.529 -24.6221 -183.037
lowerback -7.59734 1.3352 10.1808
upperback -8.9455 0.506615 0.892049
thorax -5.07843 -0.708895 -4.70011
lowerneck -20.2642 -4.31916 -7.1072
upperneck 33.3142 -6.01671 0.888172
head 15.3311 -3.93268 0.288498
rclavicle 8.15017e-015 4.6118e-014
rhumerus -5.04189 -65.1184 -38.0763
rradius 14.8796
rwrist 19.6346
rhand -4.72557 14.6652
rfingers 7.12502
rthumb 21.0571 -14.2115
lclavicle 8.15017e-015 4.6118e-014
lhumerus -23.2437 -14.0762 86.3589
lradius 14.3187
lwrist -45.854
lhand -0.518622 18.6295
lfingers 7.12502
lthumb 25.0935 47.0007
rfemur -211.626 -185.849 -148.004
rtibia 34.4897
rfoot -41.0299 -33.7545
rtoes 25.2729
lfemur -66.0518 0.346923 -32.3025
ltibia 40.8538
lfoot -1.1224 -4.21269
ltoes -8.71917
443
root 0.314356 16.2637 -27.2443 -151.724 -23.1984 -182.965
lowerback -7.59321 1.65434 8.8096
upperback -9.0757 0.972122 0.993655
thorax -5.13555 -0.410726 -3.81099
lowerneck -19.5466 -4.20703 -6.92079
upperneck 33.5626 -6.07493 0.785946
head 15.273 -3.99782 0.210302
rclavicle 1.20265e-014 9.54166e-015
rhumerus -7.01028 -63.2939 -36.5549
rradius 15.1214
rwrist 18.2852
rhand -4.17608 14.3199
rfingers 7.12502
rthumb 21.5849 -14.4972
lclavicle 1.20265e-014 9.54166e-015
lhumerus -23.1459 -13.7238 87.2378
lradius 14.2837
lwrist -44.1482
lhand 0.876773 17.5753
lfingers 7.12502
lthumb 26.4299 45.7527
rfemur -210.511 -187.764 -148.392
rtibia 33.7116
rfoot -41.5752 -33.9259
rtoes 26.9508
lfemur -66.774 1.31203 -33.862
ltibia 40.8611
lfoot -1.17735 -3.10758
ltoes -10.9263
444
root 0.303813 16.2554 -27.3536 -152.201 -22.4178 -182.061
lowerback -7.79 2.01741 8.89444
upperback -9.30268 1.38361 1.17251
thorax -5.21797 -0.243642 -3.64787
lowerneck -18.3614 -4.0183 -6.6264
upperneck 33.6684 -6.12683 0.726593
head 15.036 -4.05427 0.148818
rclavicle 5.96354e-015 3.49861e-014
rhumerus -9.01243 -61.1705 -35.0687
rradius 15.295
rwrist 16.8731
rhand -3.64912 13.9359
rfingers 7.12502
rthumb 22.0909 -14.8222
lclavicle 5.96354e-015 3.49861e-014
lhumerus -23.3159 -14.4603 88.1504
lradius 14.2558
lwrist -40.966
lhand 2.47731 16.8534
lfingers 7.12502
lthumb 27.961 44.7911
rfemur -209.618 -188.333 -147.762
rtibia 33.1438
rfoot -41.6397 -33.2731
rtoes 27.1123
lfemur -67.3571 2.16036 -34.4957
ltibia 40.8475
lfoot -1.24424 -1.71793
ltoes -10.9165
445
root 0.233023 16.2353 -27.3247 -153.403 -22.9645 -179.929
lowerback -7.80058 2.12656 11.9895
upperback -8.48401 1.41185 1.60554
thorax -4.33507 -0.290765 -4.91029
lowerneck -18.6378 -3.87587 -6.10816
upperneck 33.3096 -5.9139 0.575513
head 14.893 -3.88365 0.0458008
rclavicle -1.28216e-014 -1.11319e-014
rhumerus -7.05733 -64.7896 -36.8496
rradius 14.6878
rwrist 19.9121
rhand -3.11913 14.6596
rfingers 7.12502
rthumb 22.5996 -14.0375
lclavicle -1.28216e-014 -1.11319e-014
lhumerus -21.2313 -14.9611 88.2936
lradius 14.1931
lwrist -37.149
lhand 4.29095 16.325
lfingers 7.12502
lthumb 29.6934 43.9674
rfemur -208.579 -183.37 -144.518
rtibia 32.4706
rfoot -37.4419 -31.3984
rtoes 20.2573
lfemur -68.0249 2.07699 -33.665
ltibia 41.0516
lfoot -1.21485 0.438214
ltoes -11.0275
446
root 0.27708 16.2626 -27.4345 -153.353 -20.9955 -180.246
lowerback -7.27186 2.48469 10.1098
upperback -8.91768 2.03622 1.43519
thorax -4.99989 0.0538662 -4.02955
lowerneck -17.9199 -3.6814 -5.81466
upperneck 33.9046 -6.02776 0.663748
head 14.9994 -3.9564 0.00563304
rclavicle 8.48811e-014 1.08139e-013
rhumerus -10.041 -65.5519 -34.2118
rradius 14.5824
rwrist 21.5724
rhand -2.16222 15.3167
rfingers 7.12502
rthumb 23.5178 -13.2656
lclavicle 8.48811e-014 1.08139e-013
lhumerus -21.2531 -14.6544 88.3719
lradius 14.1587
lwrist -34.695
lhand 6.47229 15.8308
lfingers 7.12502
lthumb 31.7732 43.082
rfemur -208.046 -187.788 -146.137
rtibia 32.0218
rfoot -39.7778 -32.1079
rtoes 24.3422
lfemur -68.6947 3.48736 -35.6518
ltibia 41.0461
lfoot -0.97548 2.40467
ltoes -19.3719
447
root 0.25079 16.2185 -27.6049 -153.201 -20.8856 -178.833
lowerback -9.78083 2.88671 10.7387
upperback -8.58841 2.09146 1.98662
thorax -3.2486 0.118549 -3.73363
lowerneck -17.8646 -3.61107 -5.86746
upperneck 34.0131 -5.94285 0.655929
head 15.0357 -3.93994 0.0238998
rclavicle 2.08724e-015 5.08889e-014
rhumerus -10.5588 -67.0326 -33.3774
rradius 14.3763
rwrist 23.5266
rhand -1.3756 15.3937
rfingers 7.12502
rthumb 24.2722 -13.0898
lclavicle 2.08724e-015 5.08889e-014
lhumerus -20.0278 -13.0902 88.1336
lradius 13.9423
lwrist -33.0547
lhand 8.75645 15.6146
lfingers 7.12502
lthumb 33.9459 42.4103
rfemur -207.56 -186.499 -144.317
rtibia 31.4296
rfoot -41.095 -32.9825
rtoes 7.24911
lfemur -70.0492 4.63731 -36.4266
ltibia 41.3599
lfoot -0.300278 3.07627
ltoes -12.7662
